<mxfile host="app.diagrams.net" modified="2023-11-23T21:57:54.577Z" agent="Mozilla/5.0 (Windows NT 10.0; Win64; x64) AppleWebKit/537.36 (KHTML, like Gecko) Chrome/119.0.0.0 Safari/537.36" etag="9Kpc-cc0PuqR6QcXgn7G" version="22.1.3" type="device">
  <diagram name="Page-1" id="JmegqseKWQlAWg5_ePTO">
    <mxGraphModel dx="1202" dy="461" grid="1" gridSize="10" guides="1" tooltips="1" connect="1" arrows="1" fold="1" page="1" pageScale="1" pageWidth="1100" pageHeight="850" math="0" shadow="0">
      <root>
        <mxCell id="0" />
        <mxCell id="1" parent="0" />
        <mxCell id="sLuIARUeeccSbijKiLno-4" value="" style="group" parent="1" vertex="1" connectable="0">
          <mxGeometry x="1010" y="165" width="30.70261437908497" height="50" as="geometry" />
        </mxCell>
        <mxCell id="sLuIARUeeccSbijKiLno-2" value="" style="ellipse;whiteSpace=wrap;html=1;aspect=fixed;container=0;" parent="sLuIARUeeccSbijKiLno-4" vertex="1">
          <mxGeometry x="0.35130718954249573" y="10" width="30" height="30" as="geometry" />
        </mxCell>
        <mxCell id="sLuIARUeeccSbijKiLno-1" value="" style="ellipse;whiteSpace=wrap;html=1;aspect=fixed;fillColor=#000000;container=0;" parent="sLuIARUeeccSbijKiLno-4" vertex="1">
          <mxGeometry x="4.231118373275249" y="13.879811183732754" width="22.240377632534493" height="22.240377632534493" as="geometry" />
        </mxCell>
        <mxCell id="oB_fWxkBuDALNT95IEPK-7" style="edgeStyle=orthogonalEdgeStyle;rounded=0;orthogonalLoop=1;jettySize=auto;html=1;exitX=0;exitY=0;exitDx=0;exitDy=0;entryX=0.5;entryY=0;entryDx=0;entryDy=0;" edge="1" parent="sLuIARUeeccSbijKiLno-4" source="sLuIARUeeccSbijKiLno-1" target="sLuIARUeeccSbijKiLno-1">
          <mxGeometry relative="1" as="geometry" />
        </mxCell>
        <mxCell id="sLuIARUeeccSbijKiLno-7" style="edgeStyle=orthogonalEdgeStyle;rounded=0;orthogonalLoop=1;jettySize=auto;html=1;" parent="1" source="sLuIARUeeccSbijKiLno-5" target="sLuIARUeeccSbijKiLno-6" edge="1">
          <mxGeometry relative="1" as="geometry" />
        </mxCell>
        <mxCell id="sLuIARUeeccSbijKiLno-5" value="" style="ellipse;whiteSpace=wrap;html=1;aspect=fixed;strokeColor=none;fillColor=#000000;" parent="1" vertex="1">
          <mxGeometry x="90" y="80" width="30" height="30" as="geometry" />
        </mxCell>
        <mxCell id="sLuIARUeeccSbijKiLno-9" value="" style="edgeStyle=orthogonalEdgeStyle;rounded=0;orthogonalLoop=1;jettySize=auto;html=1;" parent="1" source="sLuIARUeeccSbijKiLno-6" target="sLuIARUeeccSbijKiLno-8" edge="1">
          <mxGeometry relative="1" as="geometry" />
        </mxCell>
        <mxCell id="sLuIARUeeccSbijKiLno-6" value="Flight Chosen" style="rounded=1;whiteSpace=wrap;html=1;" parent="1" vertex="1">
          <mxGeometry x="160" y="65" width="120" height="60" as="geometry" />
        </mxCell>
        <mxCell id="sLuIARUeeccSbijKiLno-11" value="" style="edgeStyle=orthogonalEdgeStyle;rounded=0;orthogonalLoop=1;jettySize=auto;html=1;" parent="1" target="sLuIARUeeccSbijKiLno-10" edge="1">
          <mxGeometry relative="1" as="geometry">
            <mxPoint x="760" y="95" as="sourcePoint" />
          </mxGeometry>
        </mxCell>
        <mxCell id="oB_fWxkBuDALNT95IEPK-9" style="edgeStyle=orthogonalEdgeStyle;rounded=0;orthogonalLoop=1;jettySize=auto;html=1;exitX=0.5;exitY=1;exitDx=0;exitDy=0;entryX=0;entryY=0.5;entryDx=0;entryDy=0;" edge="1" parent="1" source="sLuIARUeeccSbijKiLno-8" target="oB_fWxkBuDALNT95IEPK-8">
          <mxGeometry relative="1" as="geometry" />
        </mxCell>
        <mxCell id="sLuIARUeeccSbijKiLno-8" value="Seat Chosen" style="whiteSpace=wrap;html=1;rounded=1;" parent="1" vertex="1">
          <mxGeometry x="320" y="65" width="120" height="60" as="geometry" />
        </mxCell>
        <mxCell id="sLuIARUeeccSbijKiLno-13" value="" style="edgeStyle=orthogonalEdgeStyle;rounded=0;orthogonalLoop=1;jettySize=auto;html=1;" parent="1" source="sLuIARUeeccSbijKiLno-10" target="sLuIARUeeccSbijKiLno-12" edge="1">
          <mxGeometry relative="1" as="geometry" />
        </mxCell>
        <mxCell id="oB_fWxkBuDALNT95IEPK-27" style="edgeStyle=orthogonalEdgeStyle;rounded=0;orthogonalLoop=1;jettySize=auto;html=1;exitX=0.5;exitY=1;exitDx=0;exitDy=0;entryX=0.5;entryY=0;entryDx=0;entryDy=0;" edge="1" parent="1" source="sLuIARUeeccSbijKiLno-10" target="oB_fWxkBuDALNT95IEPK-26">
          <mxGeometry relative="1" as="geometry" />
        </mxCell>
        <mxCell id="sLuIARUeeccSbijKiLno-10" value="Ticket Generated" style="whiteSpace=wrap;html=1;rounded=1;" parent="1" vertex="1">
          <mxGeometry x="800" y="65" width="120" height="60" as="geometry" />
        </mxCell>
        <mxCell id="sLuIARUeeccSbijKiLno-14" style="edgeStyle=orthogonalEdgeStyle;rounded=0;orthogonalLoop=1;jettySize=auto;html=1;" parent="1" source="sLuIARUeeccSbijKiLno-12" target="sLuIARUeeccSbijKiLno-1" edge="1">
          <mxGeometry relative="1" as="geometry">
            <mxPoint x="1000" y="95" as="targetPoint" />
          </mxGeometry>
        </mxCell>
        <mxCell id="sLuIARUeeccSbijKiLno-12" value="Booking Confirmation Via Email" style="whiteSpace=wrap;html=1;rounded=1;" parent="1" vertex="1">
          <mxGeometry x="965.35" y="65" width="120" height="60" as="geometry" />
        </mxCell>
        <mxCell id="oB_fWxkBuDALNT95IEPK-6" value="" style="edgeStyle=orthogonalEdgeStyle;rounded=0;orthogonalLoop=1;jettySize=auto;html=1;" edge="1" parent="1" source="sLuIARUeeccSbijKiLno-8" target="oB_fWxkBuDALNT95IEPK-5">
          <mxGeometry relative="1" as="geometry">
            <mxPoint x="430" y="95" as="sourcePoint" />
            <mxPoint x="630" y="95" as="targetPoint" />
          </mxGeometry>
        </mxCell>
        <mxCell id="oB_fWxkBuDALNT95IEPK-5" value="Cancellation Insurance Chosen" style="whiteSpace=wrap;html=1;rounded=1;" vertex="1" parent="1">
          <mxGeometry x="480" y="65" width="120" height="60" as="geometry" />
        </mxCell>
        <mxCell id="oB_fWxkBuDALNT95IEPK-8" value="No Cancellation Insurance Chosen" style="whiteSpace=wrap;html=1;rounded=1;" vertex="1" parent="1">
          <mxGeometry x="480" y="170" width="120" height="60" as="geometry" />
        </mxCell>
        <mxCell id="oB_fWxkBuDALNT95IEPK-11" value="" style="edgeStyle=orthogonalEdgeStyle;rounded=0;orthogonalLoop=1;jettySize=auto;html=1;" edge="1" parent="1" source="oB_fWxkBuDALNT95IEPK-5">
          <mxGeometry relative="1" as="geometry">
            <mxPoint x="590" y="95" as="sourcePoint" />
            <mxPoint x="640" y="95" as="targetPoint" />
          </mxGeometry>
        </mxCell>
        <mxCell id="oB_fWxkBuDALNT95IEPK-20" value="Payment" style="swimlane;fontStyle=0;childLayout=stackLayout;horizontal=1;startSize=30;horizontalStack=0;resizeParent=1;resizeParentMax=0;resizeLast=0;collapsible=1;marginBottom=0;whiteSpace=wrap;html=1,rounded=1;rounded=1;snapToPoint=1;" vertex="1" parent="1">
          <mxGeometry x="640" y="65" width="120" height="100" as="geometry">
            <mxRectangle x="600" y="160" width="60" height="30" as="alternateBounds" />
          </mxGeometry>
        </mxCell>
        <mxCell id="oB_fWxkBuDALNT95IEPK-21" value="entry/select method of payment&lt;br&gt;do/make payment&lt;br&gt;exit/display recipt" style="text;strokeColor=none;fillColor=none;align=left;verticalAlign=middle;spacingLeft=4;spacingRight=4;overflow=hidden;points=[[0,0.5],[1,0.5]];portConstraint=eastwest;rotatable=0;whiteSpace=wrap;html=1;" vertex="1" parent="oB_fWxkBuDALNT95IEPK-20">
          <mxGeometry y="30" width="120" height="70" as="geometry" />
        </mxCell>
        <mxCell id="oB_fWxkBuDALNT95IEPK-25" value="" style="edgeStyle=orthogonalEdgeStyle;rounded=0;orthogonalLoop=1;jettySize=auto;html=1;" edge="1" parent="oB_fWxkBuDALNT95IEPK-20">
          <mxGeometry relative="1" as="geometry">
            <mxPoint x="-40" y="140" as="sourcePoint" />
            <mxPoint x="60" y="100" as="targetPoint" />
          </mxGeometry>
        </mxCell>
        <mxCell id="oB_fWxkBuDALNT95IEPK-28" value="" style="edgeStyle=orthogonalEdgeStyle;rounded=0;orthogonalLoop=1;jettySize=auto;html=1;" edge="1" parent="1" source="oB_fWxkBuDALNT95IEPK-26" target="sLuIARUeeccSbijKiLno-1">
          <mxGeometry relative="1" as="geometry" />
        </mxCell>
        <mxCell id="oB_fWxkBuDALNT95IEPK-26" value="Print Ticket" style="whiteSpace=wrap;html=1;rounded=1;" vertex="1" parent="1">
          <mxGeometry x="800" y="160" width="120" height="60" as="geometry" />
        </mxCell>
      </root>
    </mxGraphModel>
  </diagram>
</mxfile>
